<?xml version="1.0" encoding="UTF-8" standalone="no"?><svg xmlns="http://www.w3.org/2000/svg" xmlns:xlink="http://www.w3.org/1999/xlink" contentScriptType="application/ecmascript" contentStyleType="text/css" height="660px" preserveAspectRatio="none" style="width:921px;height:660px;background:#FFFFFF;" version="1.1" viewBox="0 0 921 660" width="921px" zoomAndPan="magnify"><defs><filter height="300%" id="fdgorlkhg9r0o" width="300%" x="-1" y="-1"><feGaussianBlur result="blurOut" stdDeviation="2.0"/><feColorMatrix in="blurOut" result="blurOut2" type="matrix" values="0 0 0 0 0 0 0 0 0 0 0 0 0 0 0 0 0 0 .4 0"/><feOffset dx="4.0" dy="4.0" in="blurOut2" result="blurOut3"/><feBlend in="SourceGraphic" in2="blurOut3" mode="normal"/></filter></defs><g><text fill="#000000" font-family="sans-serif" font-size="18" lengthAdjust="spacing" textLength="151" x="382.5" y="30.6855">Activity Processing</text><rect fill="#FFFFFF" filter="url(#fdgorlkhg9r0o)" height="503.9766" style="stroke:#000000;stroke-width:2.0;" width="841" x="10" y="95.25"/><line style="stroke:#A80036;stroke-width:1.0;stroke-dasharray:5.0,5.0;" x1="84" x2="84" y1="78.25" y2="616.2266"/><line style="stroke:#A80036;stroke-width:1.0;stroke-dasharray:5.0,5.0;" x1="184" x2="184" y1="78.25" y2="616.2266"/><line style="stroke:#A80036;stroke-width:1.0;stroke-dasharray:5.0,5.0;" x1="248" x2="248" y1="78.25" y2="616.2266"/><line style="stroke:#A80036;stroke-width:1.0;stroke-dasharray:5.0,5.0;" x1="471.5" x2="471.5" y1="78.25" y2="616.2266"/><line style="stroke:#A80036;stroke-width:1.0;stroke-dasharray:5.0,5.0;" x1="810" x2="810" y1="78.25" y2="616.2266"/><line style="stroke:#A80036;stroke-width:1.0;stroke-dasharray:5.0,5.0;" x1="881" x2="881" y1="78.25" y2="616.2266"/><rect fill="#FEFECE" filter="url(#fdgorlkhg9r0o)" height="31.6094" style="stroke:#A80036;stroke-width:1.5;" width="125" x="20" y="41.6406"/><text fill="#000000" font-family="sans-serif" font-size="14" lengthAdjust="spacing" textLength="111" x="27" y="63.1738">Pregnant Woman</text><rect fill="#FEFECE" filter="url(#fdgorlkhg9r0o)" height="31.6094" style="stroke:#A80036;stroke-width:1.5;" width="125" x="20" y="615.2266"/><text fill="#000000" font-family="sans-serif" font-size="14" lengthAdjust="spacing" textLength="111" x="27" y="636.7598">Pregnant Woman</text><rect fill="#FEFECE" filter="url(#fdgorlkhg9r0o)" height="31.6094" style="stroke:#A80036;stroke-width:1.5;" width="47" x="159" y="41.6406"/><text fill="#000000" font-family="sans-serif" font-size="14" lengthAdjust="spacing" textLength="33" x="166" y="63.1738">Clerk</text><rect fill="#FEFECE" filter="url(#fdgorlkhg9r0o)" height="31.6094" style="stroke:#A80036;stroke-width:1.5;" width="47" x="159" y="615.2266"/><text fill="#000000" font-family="sans-serif" font-size="14" lengthAdjust="spacing" textLength="33" x="166" y="636.7598">Clerk</text><rect fill="#FEFECE" filter="url(#fdgorlkhg9r0o)" height="31.6094" style="stroke:#A80036;stroke-width:1.5;" width="52" x="220" y="41.6406"/><text fill="#000000" font-family="sans-serif" font-size="14" lengthAdjust="spacing" textLength="38" x="227" y="63.1738">Nurse</text><rect fill="#FEFECE" filter="url(#fdgorlkhg9r0o)" height="31.6094" style="stroke:#A80036;stroke-width:1.5;" width="52" x="220" y="615.2266"/><text fill="#000000" font-family="sans-serif" font-size="14" lengthAdjust="spacing" textLength="38" x="227" y="636.7598">Nurse</text><rect fill="#FEFECE" filter="url(#fdgorlkhg9r0o)" height="31.6094" style="stroke:#A80036;stroke-width:1.5;" width="39" x="450.5" y="41.6406"/><text fill="#000000" font-family="sans-serif" font-size="14" lengthAdjust="spacing" textLength="25" x="457.5" y="63.1738">App</text><rect fill="#FEFECE" filter="url(#fdgorlkhg9r0o)" height="31.6094" style="stroke:#A80036;stroke-width:1.5;" width="39" x="450.5" y="615.2266"/><text fill="#000000" font-family="sans-serif" font-size="14" lengthAdjust="spacing" textLength="25" x="457.5" y="636.7598">App</text><rect fill="#FEFECE" filter="url(#fdgorlkhg9r0o)" height="31.6094" style="stroke:#A80036;stroke-width:1.5;" width="58" x="779" y="41.6406"/><text fill="#000000" font-family="sans-serif" font-size="14" lengthAdjust="spacing" textLength="44" x="786" y="63.1738">Engine</text><rect fill="#FEFECE" filter="url(#fdgorlkhg9r0o)" height="31.6094" style="stroke:#A80036;stroke-width:1.5;" width="58" x="779" y="615.2266"/><text fill="#000000" font-family="sans-serif" font-size="14" lengthAdjust="spacing" textLength="44" x="786" y="636.7598">Engine</text><rect fill="#FEFECE" filter="url(#fdgorlkhg9r0o)" height="31.6094" style="stroke:#A80036;stroke-width:1.5;" width="56" x="851" y="41.6406"/><text fill="#000000" font-family="sans-serif" font-size="14" lengthAdjust="spacing" textLength="42" x="858" y="63.1738">Server</text><rect fill="#FEFECE" filter="url(#fdgorlkhg9r0o)" height="31.6094" style="stroke:#A80036;stroke-width:1.5;" width="56" x="851" y="615.2266"/><text fill="#000000" font-family="sans-serif" font-size="14" lengthAdjust="spacing" textLength="42" x="858" y="636.7598">Server</text><path d="M10,95.25 L83,95.25 L83,103.25 L73,113.25 L10,113.25 L10,95.25 " fill="#EEEEEE" style="stroke:#000000;stroke-width:1.0;"/><rect fill="none" height="503.9766" style="stroke:#000000;stroke-width:2.0;" width="841" x="10" y="95.25"/><text fill="#000000" font-family="sans-serif" font-size="13" font-weight="bold" lengthAdjust="spacing" textLength="28" x="25" y="109.7451">loop</text><text fill="#000000" font-family="sans-serif" font-size="11" font-weight="bold" lengthAdjust="spacing" textLength="66" x="98" y="108.6689">[per activity]</text><polygon fill="#A80036" points="460,131.9531,470,135.9531,460,139.9531,464,135.9531" style="stroke:#A80036;stroke-width:1.0;"/><line style="stroke:#A80036;stroke-width:1.0;" x1="248" x2="466" y1="135.9531" y2="135.9531"/><text fill="#000000" font-family="sans-serif" font-size="13" lengthAdjust="spacing" textLength="74" x="255" y="131.0967">Start activity</text><polygon fill="#A80036" points="259,162.3047,249,166.3047,259,170.3047,255,166.3047" style="stroke:#A80036;stroke-width:1.0;"/><line style="stroke:#A80036;stroke-width:1.0;" x1="253" x2="471" y1="166.3047" y2="166.3047"/><text fill="#000000" font-family="sans-serif" font-size="13" lengthAdjust="spacing" textLength="168" x="265" y="161.4482">Render activity questionnaire</text><polygon fill="#A80036" points="798,192.6563,808,196.6563,798,200.6563,802,196.6563" style="stroke:#A80036;stroke-width:1.0;"/><line style="stroke:#A80036;stroke-width:1.0;" x1="472" x2="804" y1="196.6563" y2="196.6563"/><text fill="#000000" font-family="sans-serif" font-size="13" lengthAdjust="spacing" textLength="314" x="479" y="191.7998">Pre-Populate QuestionnaireResponse ($populate-data)</text><polygon fill="#A80036" points="483,223.0078,473,227.0078,483,231.0078,479,227.0078" style="stroke:#A80036;stroke-width:1.0;"/><line style="stroke:#A80036;stroke-width:1.0;" x1="477" x2="809" y1="227.0078" y2="227.0078"/><text fill="#000000" font-family="sans-serif" font-size="13" lengthAdjust="spacing" textLength="222" x="489" y="222.1514">Pre-populated QuestionnaireResponse</text><polygon fill="#A80036" points="95.5,253.3594,85.5,257.3594,95.5,261.3594,91.5,257.3594" style="stroke:#A80036;stroke-width:1.0;"/><line style="stroke:#A80036;stroke-width:1.0;" x1="89.5" x2="247" y1="257.3594" y2="257.3594"/><text fill="#000000" font-family="sans-serif" font-size="13" lengthAdjust="spacing" textLength="94" x="101.5" y="252.5029">Seek responses</text><polygon fill="#A80036" points="236,283.7109,246,287.7109,236,291.7109,240,287.7109" style="stroke:#A80036;stroke-width:1.0;"/><line style="stroke:#A80036;stroke-width:1.0;" x1="84.5" x2="242" y1="287.7109" y2="287.7109"/><text fill="#000000" font-family="sans-serif" font-size="13" lengthAdjust="spacing" textLength="108" x="91.5" y="282.8545">Provide responses</text><polygon fill="#A80036" points="460,314.0625,470,318.0625,460,322.0625,464,318.0625" style="stroke:#A80036;stroke-width:1.0;"/><line style="stroke:#A80036;stroke-width:1.0;" x1="248" x2="466" y1="318.0625" y2="318.0625"/><text fill="#000000" font-family="sans-serif" font-size="13" lengthAdjust="spacing" textLength="111" x="255" y="313.2061">Save questionnaire</text><polygon fill="#A80036" points="798,344.4141,808,348.4141,798,352.4141,802,348.4141" style="stroke:#A80036;stroke-width:1.0;"/><line style="stroke:#A80036;stroke-width:1.0;" x1="472" x2="804" y1="348.4141" y2="348.4141"/><text fill="#000000" font-family="sans-serif" font-size="13" lengthAdjust="spacing" textLength="271" x="479" y="343.5576">Proces QuestionnaireResponse ($extract-data)</text><polygon fill="#A80036" points="483,374.7656,473,378.7656,483,382.7656,479,378.7656" style="stroke:#A80036;stroke-width:1.0;"/><line style="stroke:#A80036;stroke-width:1.0;" x1="477" x2="809" y1="378.7656" y2="378.7656"/><text fill="#000000" font-family="sans-serif" font-size="13" lengthAdjust="spacing" textLength="77" x="489" y="373.9092">Confirm save</text><polygon fill="#A80036" points="798,405.1172,808,409.1172,798,413.1172,802,409.1172" style="stroke:#A80036;stroke-width:1.0;"/><line style="stroke:#A80036;stroke-width:1.0;" x1="472" x2="804" y1="409.1172" y2="409.1172"/><text fill="#000000" font-family="sans-serif" font-size="13" lengthAdjust="spacing" textLength="169" x="479" y="404.2607">Run logic for activity ($apply)</text><polygon fill="#A80036" points="483,435.4688,473,439.4688,483,443.4688,479,439.4688" style="stroke:#A80036;stroke-width:1.0;"/><line style="stroke:#A80036;stroke-width:1.0;" x1="477" x2="809" y1="439.4688" y2="439.4688"/><text fill="#000000" font-family="sans-serif" font-size="13" lengthAdjust="spacing" textLength="195" x="489" y="434.6123">Return transient activity care plan</text><polygon fill="#A80036" points="259,465.8203,249,469.8203,259,473.8203,255,469.8203" style="stroke:#A80036;stroke-width:1.0;"/><line style="stroke:#A80036;stroke-width:1.0;" x1="253" x2="471" y1="469.8203" y2="469.8203"/><text fill="#000000" font-family="sans-serif" font-size="13" lengthAdjust="spacing" textLength="200" x="265" y="464.9639">Display transient activity care plan</text><polygon fill="#A80036" points="460,496.1719,470,500.1719,460,504.1719,464,500.1719" style="stroke:#A80036;stroke-width:1.0;"/><line style="stroke:#A80036;stroke-width:1.0;" x1="248" x2="466" y1="500.1719" y2="500.1719"/><text fill="#000000" font-family="sans-serif" font-size="13" lengthAdjust="spacing" textLength="142" x="255" y="495.3154">Accept/Reject proposals</text><polygon fill="#A80036" points="798,526.5234,808,530.5234,798,534.5234,802,530.5234" style="stroke:#A80036;stroke-width:1.0;"/><line style="stroke:#A80036;stroke-width:1.0;" x1="472" x2="804" y1="530.5234" y2="530.5234"/><text fill="#000000" font-family="sans-serif" font-size="13" lengthAdjust="spacing" textLength="159" x="479" y="525.667">Update encounter care plan</text><polygon fill="#A80036" points="483,556.875,473,560.875,483,564.875,479,560.875" style="stroke:#A80036;stroke-width:1.0;"/><line style="stroke:#A80036;stroke-width:1.0;" x1="477" x2="809" y1="560.875" y2="560.875"/><text fill="#000000" font-family="sans-serif" font-size="13" lengthAdjust="spacing" textLength="77" x="489" y="556.0186">Confirm save</text><polygon fill="#A80036" points="259,587.2266,249,591.2266,259,595.2266,255,591.2266" style="stroke:#A80036;stroke-width:1.0;"/><line style="stroke:#A80036;stroke-width:1.0;" x1="253" x2="471" y1="591.2266" y2="591.2266"/><text fill="#000000" font-family="sans-serif" font-size="13" lengthAdjust="spacing" textLength="148" x="265" y="586.3701">Confirm activity complete</text><!--MD5=[4105989e2ba79968d80a7589b8adfd25]
@startuml ActivityProcessing
title Activity Processing
participant "Pregnant Woman" as PW
participant "Clerk" as Clerk
participant "Nurse" as Nurse
participant "App" as App
participant "Engine" as Engine
participant "Server" as Server


loop per activity
  Nurse -> App: Start activity
  App -> Nurse: Render activity questionnaire
  App -> Engine: Pre-Populate QuestionnaireResponse ($populate-data)
  Engine -> App: Pre-populated QuestionnaireResponse
  Nurse -> PW: Seek responses
  PW -> Nurse: Provide responses
  Nurse -> App: Save questionnaire
  App -> Engine: Proces QuestionnaireResponse ($extract-data)
  Engine -> App: Confirm save
  App -> Engine: Run logic for activity ($apply)
  Engine -> App: Return transient activity care plan
  App -> Nurse: Display transient activity care plan
  Nurse -> App: Accept/Reject proposals
  App -> Engine: Update encounter care plan
  Engine -> App: Confirm save
  App -> Nurse: Confirm activity complete
end


@enduml

PlantUML version 1.2021.7(Sun May 23 06:40:07 MDT 2021)
(GPL source distribution)
Java Runtime: OpenJDK Runtime Environment
JVM: Eclipse OpenJ9 VM
Default Encoding: Cp1252
Language: en
Country: US
--></g></svg>