<?xml version="1.0" encoding="UTF-8" standalone="no"?><svg xmlns="http://www.w3.org/2000/svg" xmlns:xlink="http://www.w3.org/1999/xlink" contentScriptType="application/ecmascript" contentStyleType="text/css" height="628px" preserveAspectRatio="none" style="width:865px;height:628px;background:#FFFFFF;" version="1.1" viewBox="0 0 865 628" width="865px" zoomAndPan="magnify"><defs><filter height="300%" id="fhfcj369e19ms" width="300%" x="-1" y="-1"><feGaussianBlur result="blurOut" stdDeviation="2.0"/><feColorMatrix in="blurOut" result="blurOut2" type="matrix" values="0 0 0 0 0 0 0 0 0 0 0 0 0 0 0 0 0 0 .4 0"/><feOffset dx="4.0" dy="4.0" in="blurOut2" result="blurOut3"/><feBlend in="SourceGraphic" in2="blurOut3" mode="normal"/></filter></defs><g><text fill="#000000" font-family="sans-serif" font-size="18" lengthAdjust="spacing" textLength="176" x="342" y="30.6855">Encounter Processing</text><line style="stroke:#A80036;stroke-width:1.0;stroke-dasharray:5.0,5.0;" x1="69" x2="69" y1="78.25" y2="583.875"/><line style="stroke:#A80036;stroke-width:1.0;stroke-dasharray:5.0,5.0;" x1="169" x2="169" y1="78.25" y2="583.875"/><line style="stroke:#A80036;stroke-width:1.0;stroke-dasharray:5.0,5.0;" x1="233" x2="233" y1="78.25" y2="583.875"/><line style="stroke:#A80036;stroke-width:1.0;stroke-dasharray:5.0,5.0;" x1="471.5" x2="471.5" y1="78.25" y2="583.875"/><line style="stroke:#A80036;stroke-width:1.0;stroke-dasharray:5.0,5.0;" x1="713" x2="713" y1="78.25" y2="583.875"/><line style="stroke:#A80036;stroke-width:1.0;stroke-dasharray:5.0,5.0;" x1="825" x2="825" y1="78.25" y2="583.875"/><rect fill="#FEFECE" filter="url(#fhfcj369e19ms)" height="31.6094" style="stroke:#A80036;stroke-width:1.5;" width="125" x="5" y="41.6406"/><text fill="#000000" font-family="sans-serif" font-size="14" lengthAdjust="spacing" textLength="111" x="12" y="63.1738">Pregnant Woman</text><rect fill="#FEFECE" filter="url(#fhfcj369e19ms)" height="31.6094" style="stroke:#A80036;stroke-width:1.5;" width="125" x="5" y="582.875"/><text fill="#000000" font-family="sans-serif" font-size="14" lengthAdjust="spacing" textLength="111" x="12" y="604.4082">Pregnant Woman</text><rect fill="#FEFECE" filter="url(#fhfcj369e19ms)" height="31.6094" style="stroke:#A80036;stroke-width:1.5;" width="47" x="144" y="41.6406"/><text fill="#000000" font-family="sans-serif" font-size="14" lengthAdjust="spacing" textLength="33" x="151" y="63.1738">Clerk</text><rect fill="#FEFECE" filter="url(#fhfcj369e19ms)" height="31.6094" style="stroke:#A80036;stroke-width:1.5;" width="47" x="144" y="582.875"/><text fill="#000000" font-family="sans-serif" font-size="14" lengthAdjust="spacing" textLength="33" x="151" y="604.4082">Clerk</text><rect fill="#FEFECE" filter="url(#fhfcj369e19ms)" height="31.6094" style="stroke:#A80036;stroke-width:1.5;" width="52" x="205" y="41.6406"/><text fill="#000000" font-family="sans-serif" font-size="14" lengthAdjust="spacing" textLength="38" x="212" y="63.1738">Nurse</text><rect fill="#FEFECE" filter="url(#fhfcj369e19ms)" height="31.6094" style="stroke:#A80036;stroke-width:1.5;" width="52" x="205" y="582.875"/><text fill="#000000" font-family="sans-serif" font-size="14" lengthAdjust="spacing" textLength="38" x="212" y="604.4082">Nurse</text><rect fill="#FEFECE" filter="url(#fhfcj369e19ms)" height="31.6094" style="stroke:#A80036;stroke-width:1.5;" width="39" x="450.5" y="41.6406"/><text fill="#000000" font-family="sans-serif" font-size="14" lengthAdjust="spacing" textLength="25" x="457.5" y="63.1738">App</text><rect fill="#FEFECE" filter="url(#fhfcj369e19ms)" height="31.6094" style="stroke:#A80036;stroke-width:1.5;" width="39" x="450.5" y="582.875"/><text fill="#000000" font-family="sans-serif" font-size="14" lengthAdjust="spacing" textLength="25" x="457.5" y="604.4082">App</text><rect fill="#FEFECE" filter="url(#fhfcj369e19ms)" height="31.6094" style="stroke:#A80036;stroke-width:1.5;" width="58" x="682" y="41.6406"/><text fill="#000000" font-family="sans-serif" font-size="14" lengthAdjust="spacing" textLength="44" x="689" y="63.1738">Engine</text><rect fill="#FEFECE" filter="url(#fhfcj369e19ms)" height="31.6094" style="stroke:#A80036;stroke-width:1.5;" width="58" x="682" y="582.875"/><text fill="#000000" font-family="sans-serif" font-size="14" lengthAdjust="spacing" textLength="44" x="689" y="604.4082">Engine</text><rect fill="#FEFECE" filter="url(#fhfcj369e19ms)" height="31.6094" style="stroke:#A80036;stroke-width:1.5;" width="56" x="795" y="41.6406"/><text fill="#000000" font-family="sans-serif" font-size="14" lengthAdjust="spacing" textLength="42" x="802" y="63.1738">Server</text><rect fill="#FEFECE" filter="url(#fhfcj369e19ms)" height="31.6094" style="stroke:#A80036;stroke-width:1.5;" width="56" x="795" y="582.875"/><text fill="#000000" font-family="sans-serif" font-size="14" lengthAdjust="spacing" textLength="42" x="802" y="604.4082">Server</text><polygon fill="#A80036" points="460,106.6016,470,110.6016,460,114.6016,464,110.6016" style="stroke:#A80036;stroke-width:1.0;"/><line style="stroke:#A80036;stroke-width:1.0;" x1="233" x2="466" y1="110.6016" y2="110.6016"/><text fill="#000000" font-family="sans-serif" font-size="13" lengthAdjust="spacing" textLength="89" x="240" y="105.7451">Start encounter</text><polygon fill="#A80036" points="701,136.9531,711,140.9531,701,144.9531,705,140.9531" style="stroke:#A80036;stroke-width:1.0;"/><line style="stroke:#A80036;stroke-width:1.0;" x1="472" x2="707" y1="140.9531" y2="140.9531"/><text fill="#000000" font-family="sans-serif" font-size="13" lengthAdjust="spacing" textLength="202" x="479" y="136.0967">$apply encounter strategy (ANC.B)</text><polygon fill="#A80036" points="483,167.3047,473,171.3047,483,175.3047,479,171.3047" style="stroke:#A80036;stroke-width:1.0;"/><line style="stroke:#A80036;stroke-width:1.0;" x1="477" x2="712" y1="171.3047" y2="171.3047"/><text fill="#000000" font-family="sans-serif" font-size="13" lengthAdjust="spacing" textLength="217" x="489" y="166.4482">Returns transient encounter care plan</text><polygon fill="#A80036" points="244,197.6563,234,201.6563,244,205.6563,240,201.6563" style="stroke:#A80036;stroke-width:1.0;"/><line style="stroke:#A80036;stroke-width:1.0;" x1="238" x2="471" y1="201.6563" y2="201.6563"/><text fill="#000000" font-family="sans-serif" font-size="13" lengthAdjust="spacing" textLength="215" x="250" y="196.7998">Display transient encounter care plan</text><polygon fill="#A80036" points="460,228.0078,470,232.0078,460,236.0078,464,232.0078" style="stroke:#A80036;stroke-width:1.0;"/><line style="stroke:#A80036;stroke-width:1.0;" x1="233" x2="466" y1="232.0078" y2="232.0078"/><text fill="#000000" font-family="sans-serif" font-size="13" lengthAdjust="spacing" textLength="142" x="240" y="227.1514">Accept/Reject proposals</text><polygon fill="#A80036" points="701,258.3594,711,262.3594,701,266.3594,705,262.3594" style="stroke:#A80036;stroke-width:1.0;"/><line style="stroke:#A80036;stroke-width:1.0;" x1="472" x2="707" y1="262.3594" y2="262.3594"/><text fill="#000000" font-family="sans-serif" font-size="13" lengthAdjust="spacing" textLength="159" x="479" y="257.5029">Update encounter care plan</text><polygon fill="#A80036" points="483,288.7109,473,292.7109,483,296.7109,479,292.7109" style="stroke:#A80036;stroke-width:1.0;"/><line style="stroke:#A80036;stroke-width:1.0;" x1="477" x2="712" y1="292.7109" y2="292.7109"/><text fill="#000000" font-family="sans-serif" font-size="13" lengthAdjust="spacing" textLength="77" x="489" y="287.8545">Confirm save</text><polygon fill="#A80036" points="244,319.0625,234,323.0625,244,327.0625,240,323.0625" style="stroke:#A80036;stroke-width:1.0;"/><line style="stroke:#A80036;stroke-width:1.0;" x1="238" x2="471" y1="323.0625" y2="323.0625"/><text fill="#000000" font-family="sans-serif" font-size="13" lengthAdjust="spacing" textLength="160" x="250" y="318.2061">Display encounter activities</text><polygon fill="#A80036" points="460,349.4141,470,353.4141,460,357.4141,464,353.4141" style="stroke:#A80036;stroke-width:1.0;"/><line style="stroke:#A80036;stroke-width:1.0;" x1="233" x2="466" y1="353.4141" y2="353.4141"/><text fill="#000000" font-family="sans-serif" font-size="13" lengthAdjust="spacing" textLength="111" x="240" y="348.5576">Activity processing</text><polygon fill="#A80036" points="244,379.7656,234,383.7656,244,387.7656,240,383.7656" style="stroke:#A80036;stroke-width:1.0;"/><line style="stroke:#A80036;stroke-width:1.0;" x1="238" x2="471" y1="383.7656" y2="383.7656"/><text fill="#000000" font-family="sans-serif" font-size="13" lengthAdjust="spacing" textLength="158" x="250" y="378.9092">Confirm activities complete</text><polygon fill="#A80036" points="460,410.1172,470,414.1172,460,418.1172,464,414.1172" style="stroke:#A80036;stroke-width:1.0;"/><line style="stroke:#A80036;stroke-width:1.0;" x1="233" x2="466" y1="414.1172" y2="414.1172"/><text fill="#000000" font-family="sans-serif" font-size="13" lengthAdjust="spacing" textLength="84" x="240" y="409.2607">End encounter</text><polygon fill="#A80036" points="701,440.4688,711,444.4688,701,448.4688,705,444.4688" style="stroke:#A80036;stroke-width:1.0;"/><line style="stroke:#A80036;stroke-width:1.0;" x1="472" x2="707" y1="444.4688" y2="444.4688"/><text fill="#000000" font-family="sans-serif" font-size="13" lengthAdjust="spacing" textLength="84" x="479" y="439.6123">End encounter</text><polygon fill="#A80036" points="813,470.8203,823,474.8203,813,478.8203,817,474.8203" style="stroke:#A80036;stroke-width:1.0;"/><line style="stroke:#A80036;stroke-width:1.0;" x1="713" x2="819" y1="474.8203" y2="474.8203"/><text fill="#000000" font-family="sans-serif" font-size="13" lengthAdjust="spacing" textLength="81" x="720" y="469.9639">Update record</text><polygon fill="#A80036" points="724,501.1719,714,505.1719,724,509.1719,720,505.1719" style="stroke:#A80036;stroke-width:1.0;"/><line style="stroke:#A80036;stroke-width:1.0;" x1="718" x2="824" y1="505.1719" y2="505.1719"/><text fill="#000000" font-family="sans-serif" font-size="13" lengthAdjust="spacing" textLength="88" x="730" y="500.3154">Confirm update</text><polygon fill="#A80036" points="483,531.5234,473,535.5234,483,539.5234,479,535.5234" style="stroke:#A80036;stroke-width:1.0;"/><line style="stroke:#A80036;stroke-width:1.0;" x1="477" x2="712" y1="535.5234" y2="535.5234"/><text fill="#000000" font-family="sans-serif" font-size="13" lengthAdjust="spacing" textLength="163" x="489" y="530.667">Confirm encounter complete</text><polygon fill="#A80036" points="244,561.875,234,565.875,244,569.875,240,565.875" style="stroke:#A80036;stroke-width:1.0;"/><line style="stroke:#A80036;stroke-width:1.0;" x1="238" x2="471" y1="565.875" y2="565.875"/><text fill="#000000" font-family="sans-serif" font-size="13" lengthAdjust="spacing" textLength="163" x="250" y="561.0186">Confirm encounter complete</text><!--MD5=[58ea4b667940adde0ab07951bd47bb84]
@startuml EncounterProcessing
title Encounter Processing
participant "Pregnant Woman" as PW
participant "Clerk" as Clerk
participant "Nurse" as Nurse
participant "App" as App
participant "Engine" as Engine
participant "Server" as Server

Nurse -> App: Start encounter
App -> Engine: $apply encounter strategy (ANC.B)
Engine -> App: Returns transient encounter care plan
App -> Nurse: Display transient encounter care plan
Nurse -> App: Accept/Reject proposals
App -> Engine: Update encounter care plan
Engine -> App: Confirm save
App -> Nurse: Display encounter activities
Nurse -> App: Activity processing
App -> Nurse: Confirm activities complete
Nurse -> App: End encounter
App -> Engine: End encounter
Engine -> Server: Update record
Server -> Engine: Confirm update
Engine -> App: Confirm encounter complete
App -> Nurse: Confirm encounter complete


@enduml

PlantUML version 1.2021.7(Sun May 23 06:40:07 MDT 2021)
(GPL source distribution)
Java Runtime: OpenJDK Runtime Environment
JVM: Eclipse OpenJ9 VM
Default Encoding: Cp1252
Language: en
Country: US
--></g></svg>