<?xml version="1.0" encoding="UTF-8" standalone="no"?><svg xmlns="http://www.w3.org/2000/svg" xmlns:xlink="http://www.w3.org/1999/xlink" contentScriptType="application/ecmascript" contentStyleType="text/css" height="1893.75px" preserveAspectRatio="none" style="width:1950px;height:1893px;background:#FFFFFF;" version="1.1" viewBox="0 0 1950 1893" width="1950px" zoomAndPan="magnify"><defs/><g><text fill="#000000" font-family="Source Sans Pro" font-size="56.25" font-weight="bold" lengthAdjust="spacing" textLength="346.875" x="800.7813" y="95.8923">First Contact</text><line style="stroke:#090B0A;stroke-width:3.125;" x1="206.25" x2="206.25" y1="382.0313" y2="1013.0127"/><line style="stroke:#090B0A;stroke-width:3.125;stroke-dasharray:1.0,4.0;" x1="206.25" x2="206.25" y1="1013.0127" y2="1100.5127"/><line style="stroke:#090B0A;stroke-width:3.125;" x1="206.25" x2="206.25" y1="1100.5127" y2="1427.4902"/><line style="stroke:#090B0A;stroke-width:3.125;stroke-dasharray:1.0,4.0;" x1="206.25" x2="206.25" y1="1427.4902" y2="1514.9902"/><line style="stroke:#090B0A;stroke-width:3.125;" x1="206.25" x2="206.25" y1="1514.9902" y2="1873.2178"/><line style="stroke:#090B0A;stroke-width:3.125;" x1="515.625" x2="515.625" y1="382.0313" y2="1013.0127"/><line style="stroke:#090B0A;stroke-width:3.125;stroke-dasharray:1.0,4.0;" x1="515.625" x2="515.625" y1="1013.0127" y2="1100.5127"/><line style="stroke:#090B0A;stroke-width:3.125;" x1="515.625" x2="515.625" y1="1100.5127" y2="1427.4902"/><line style="stroke:#090B0A;stroke-width:3.125;stroke-dasharray:1.0,4.0;" x1="515.625" x2="515.625" y1="1427.4902" y2="1514.9902"/><line style="stroke:#090B0A;stroke-width:3.125;" x1="515.625" x2="515.625" y1="1514.9902" y2="1873.2178"/><line style="stroke:#090B0A;stroke-width:3.125;" x1="854.6875" x2="854.6875" y1="382.0313" y2="1013.0127"/><line style="stroke:#090B0A;stroke-width:3.125;stroke-dasharray:1.0,4.0;" x1="854.6875" x2="854.6875" y1="1013.0127" y2="1100.5127"/><line style="stroke:#090B0A;stroke-width:3.125;" x1="854.6875" x2="854.6875" y1="1100.5127" y2="1427.4902"/><line style="stroke:#090B0A;stroke-width:3.125;stroke-dasharray:1.0,4.0;" x1="854.6875" x2="854.6875" y1="1427.4902" y2="1514.9902"/><line style="stroke:#090B0A;stroke-width:3.125;" x1="854.6875" x2="854.6875" y1="1514.9902" y2="1873.2178"/><line style="stroke:#090B0A;stroke-width:3.125;" x1="1432.8125" x2="1432.8125" y1="382.0313" y2="1013.0127"/><line style="stroke:#090B0A;stroke-width:3.125;stroke-dasharray:1.0,4.0;" x1="1432.8125" x2="1432.8125" y1="1013.0127" y2="1100.5127"/><line style="stroke:#090B0A;stroke-width:3.125;" x1="1432.8125" x2="1432.8125" y1="1100.5127" y2="1427.4902"/><line style="stroke:#090B0A;stroke-width:3.125;stroke-dasharray:1.0,4.0;" x1="1432.8125" x2="1432.8125" y1="1427.4902" y2="1514.9902"/><line style="stroke:#090B0A;stroke-width:3.125;" x1="1432.8125" x2="1432.8125" y1="1514.9902" y2="1873.2178"/><line style="stroke:#090B0A;stroke-width:3.125;" x1="1626.5625" x2="1626.5625" y1="382.0313" y2="1013.0127"/><line style="stroke:#090B0A;stroke-width:3.125;stroke-dasharray:1.0,4.0;" x1="1626.5625" x2="1626.5625" y1="1013.0127" y2="1100.5127"/><line style="stroke:#090B0A;stroke-width:3.125;" x1="1626.5625" x2="1626.5625" y1="1100.5127" y2="1427.4902"/><line style="stroke:#090B0A;stroke-width:3.125;stroke-dasharray:1.0,4.0;" x1="1626.5625" x2="1626.5625" y1="1427.4902" y2="1514.9902"/><line style="stroke:#090B0A;stroke-width:3.125;" x1="1626.5625" x2="1626.5625" y1="1514.9902" y2="1873.2178"/><line style="stroke:#090B0A;stroke-width:3.125;" x1="1842.1875" x2="1842.1875" y1="382.0313" y2="1013.0127"/><line style="stroke:#090B0A;stroke-width:3.125;stroke-dasharray:1.0,4.0;" x1="1842.1875" x2="1842.1875" y1="1013.0127" y2="1100.5127"/><line style="stroke:#090B0A;stroke-width:3.125;" x1="1842.1875" x2="1842.1875" y1="1100.5127" y2="1427.4902"/><line style="stroke:#090B0A;stroke-width:3.125;stroke-dasharray:1.0,4.0;" x1="1842.1875" x2="1842.1875" y1="1427.4902" y2="1514.9902"/><line style="stroke:#090B0A;stroke-width:3.125;" x1="1842.1875" x2="1842.1875" y1="1514.9902" y2="1873.2178"/><text fill="#090B0A" font-family="Source Sans Pro" font-size="43.75" font-weight="bold" lengthAdjust="spacing" textLength="365.625" x="15.625" y="372.4182">Pregnant Woman</text><ellipse cx="207.8125" cy="161.377" fill="#FFFFFF" rx="25" ry="25" style="stroke:#090B0A;stroke-width:6.25;"/><path d="M207.8125,186.377 L207.8125,270.752 M167.1875,211.377 L248.4375,211.377 M207.8125,270.752 L167.1875,317.627 M207.8125,270.752 L248.4375,317.627 " fill="none" style="stroke:#090B0A;stroke-width:6.25;"/><text fill="#090B0A" font-family="Source Sans Pro" font-size="43.75" font-weight="bold" lengthAdjust="spacing" textLength="109.375" x="453.125" y="372.4182">Clerk</text><ellipse cx="517.1875" cy="161.377" fill="#FFFFFF" rx="25" ry="25" style="stroke:#090B0A;stroke-width:6.25;"/><path d="M517.1875,186.377 L517.1875,270.752 M476.5625,211.377 L557.8125,211.377 M517.1875,270.752 L476.5625,317.627 M517.1875,270.752 L557.8125,317.627 " fill="none" style="stroke:#090B0A;stroke-width:6.25;"/><text fill="#090B0A" font-family="Source Sans Pro" font-size="43.75" font-weight="bold" lengthAdjust="spacing" textLength="125" x="782.8125" y="372.4182">Nurse</text><ellipse cx="854.6875" cy="161.377" fill="#FFFFFF" rx="25" ry="25" style="stroke:#090B0A;stroke-width:6.25;"/><path d="M854.6875,186.377 L854.6875,270.752 M814.0625,211.377 L895.3125,211.377 M854.6875,270.752 L814.0625,317.627 M854.6875,270.752 L895.3125,317.627 " fill="none" style="stroke:#090B0A;stroke-width:6.25;"/><rect fill="#FAA40F" height="98.7793" style="stroke:#090B0A;stroke-width:4.6875;" width="131.25" x="1367.1875" y="280.127"/><text fill="#090B0A" font-family="Source Sans Pro" font-size="43.75" font-weight="bold" lengthAdjust="spacing" textLength="87.5" x="1389.0625" y="347.4182">App</text><rect fill="#FAA40F" height="98.7793" style="stroke:#090B0A;stroke-width:4.6875;" width="193.75" x="1529.6875" y="280.127"/><text fill="#090B0A" font-family="Source Sans Pro" font-size="43.75" font-weight="bold" lengthAdjust="spacing" textLength="150" x="1551.5625" y="347.4182">Engine</text><rect fill="#FAA40F" height="98.7793" style="stroke:#090B0A;stroke-width:4.6875;" width="178.125" x="1754.6875" y="280.127"/><text fill="#090B0A" font-family="Source Sans Pro" font-size="43.75" font-weight="bold" lengthAdjust="spacing" textLength="134.375" x="1776.5625" y="347.4182">Server</text><polygon fill="#404F47" points="479.6875,466.6992,510.9375,479.1992,479.6875,491.6992,492.1875,479.1992" style="stroke:#404F47;stroke-width:3.125;"/><line style="stroke:#404F47;stroke-width:3.125;" x1="207.8125" x2="498.4375" y1="479.1992" y2="479.1992"/><text fill="#090B0A" font-family="Source Sans Pro" font-size="37.5" lengthAdjust="spacing" textLength="190.625" x="267.1875" y="464.7095">Seeks care</text><polygon fill="#404F47" points="1395.3125,557.6172,1426.5625,570.1172,1395.3125,582.6172,1407.8125,570.1172" style="stroke:#404F47;stroke-width:3.125;"/><line style="stroke:#404F47;stroke-width:3.125;" x1="517.1875" x2="1414.0625" y1="570.1172" y2="570.1172"/><text fill="#090B0A" font-family="Source Sans Pro" font-size="37.5" lengthAdjust="spacing" textLength="206.25" x="871.875" y="555.6274">Registration</text><rect fill="#FFFFFF" height="129.5166" style="stroke:#000000;stroke-width:6.25;" width="1064.0625" x="443.75" y="595.1172"/><polygon fill="#EEEEEE" points="443.75,595.1172,634.375,595.1172,634.375,616.9922,603.125,648.2422,443.75,648.2422,443.75,595.1172" style="stroke:#000000;stroke-width:6.25;"/><text fill="#FFFFFF" font-family="Source Sans Pro" font-size="37.5" font-weight="bold" lengthAdjust="spacing" textLength="50" x="484.375" y="640.2954">ref</text><text fill="#000000" font-family="Source Sans Pro" font-size="40.625" lengthAdjust="spacing" textLength="493.75" x="728.9063" y="702.9144">See Registration Sequence</text><polygon fill="#404F47" points="551.5625,793.6768,520.3125,806.1768,551.5625,818.6768,539.0625,806.1768" style="stroke:#404F47;stroke-width:3.125;"/><line style="stroke:#404F47;stroke-width:3.125;" x1="532.8125" x2="1429.6875" y1="806.1768" y2="806.1768"/><text fill="#090B0A" font-family="Source Sans Pro" font-size="37.5" lengthAdjust="spacing" textLength="371.875" x="789.0625" y="791.687">Registration complete</text><polygon fill="#404F47" points="242.1875,884.5947,210.9375,897.0947,242.1875,909.5947,229.6875,897.0947" style="stroke:#404F47;stroke-width:3.125;"/><line style="stroke:#404F47;stroke-width:3.125;" x1="223.4375" x2="514.0625" y1="897.0947" y2="897.0947"/><text fill="#090B0A" font-family="Source Sans Pro" font-size="37.5" lengthAdjust="spacing" textLength="234.375" x="245.3125" y="882.605">Wait for nurse</text><polygon fill="#404F47" points="817.1875,975.5127,848.4375,988.0127,817.1875,1000.5127,829.6875,988.0127" style="stroke:#404F47;stroke-width:3.125;"/><line style="stroke:#404F47;stroke-width:3.125;" x1="517.1875" x2="835.9375" y1="988.0127" y2="988.0127"/><text fill="#090B0A" font-family="Source Sans Pro" font-size="37.5" lengthAdjust="spacing" textLength="262.5" x="554.6875" y="973.5229">Patient is ready</text><polygon fill="#404F47" points="1395.3125,1153.9307,1426.5625,1166.4307,1395.3125,1178.9307,1407.8125,1166.4307" style="stroke:#404F47;stroke-width:3.125;"/><line style="stroke:#404F47;stroke-width:3.125;" x1="854.6875" x2="1414.0625" y1="1166.4307" y2="1166.4307"/><text fill="#090B0A" font-family="Source Sans Pro" font-size="37.5" lengthAdjust="spacing" textLength="184.375" x="1051.5625" y="1151.9409">Enrollment</text><rect fill="#FFFFFF" height="129.5166" style="stroke:#000000;stroke-width:6.25;" width="734.375" x="773.4375" y="1191.4307"/><polygon fill="#EEEEEE" points="773.4375,1191.4307,964.0625,1191.4307,964.0625,1213.3057,932.8125,1244.5557,773.4375,1244.5557,773.4375,1191.4307" style="stroke:#000000;stroke-width:6.25;"/><text fill="#FFFFFF" font-family="Source Sans Pro" font-size="37.5" font-weight="bold" lengthAdjust="spacing" textLength="50" x="814.0625" y="1236.6089">ref</text><text fill="#000000" font-family="Source Sans Pro" font-size="40.625" lengthAdjust="spacing" textLength="471.875" x="904.6875" y="1299.2279">See Enrollment Sequence</text><polygon fill="#404F47" points="889.0625,1389.9902,857.8125,1402.4902,889.0625,1414.9902,876.5625,1402.4902" style="stroke:#404F47;stroke-width:3.125;"/><line style="stroke:#404F47;stroke-width:3.125;" x1="870.3125" x2="1429.6875" y1="1402.4902" y2="1402.4902"/><text fill="#090B0A" font-family="Source Sans Pro" font-size="37.5" lengthAdjust="spacing" textLength="350" x="968.75" y="1388.0005">Enrollment complete</text><polygon fill="#404F47" points="1395.3125,1568.4082,1426.5625,1580.9082,1395.3125,1593.4082,1407.8125,1580.9082" style="stroke:#404F47;stroke-width:3.125;"/><line style="stroke:#404F47;stroke-width:3.125;" x1="854.6875" x2="1414.0625" y1="1580.9082" y2="1580.9082"/><text fill="#090B0A" font-family="Source Sans Pro" font-size="37.5" lengthAdjust="spacing" textLength="375" x="956.25" y="1566.4185">Encounter Processing</text><rect fill="#FFFFFF" height="129.5166" style="stroke:#000000;stroke-width:6.25;" width="734.375" x="773.4375" y="1605.9082"/><polygon fill="#EEEEEE" points="773.4375,1605.9082,964.0625,1605.9082,964.0625,1627.7832,932.8125,1659.0332,773.4375,1659.0332,773.4375,1605.9082" style="stroke:#000000;stroke-width:6.25;"/><text fill="#FFFFFF" font-family="Source Sans Pro" font-size="37.5" font-weight="bold" lengthAdjust="spacing" textLength="50" x="814.0625" y="1651.0864">ref</text><text fill="#000000" font-family="Source Sans Pro" font-size="40.625" lengthAdjust="spacing" textLength="678.125" x="801.5625" y="1713.7054">See Encounter Processing Sequence</text><polygon fill="#404F47" points="889.0625,1804.4678,857.8125,1816.9678,889.0625,1829.4678,876.5625,1816.9678" style="stroke:#404F47;stroke-width:3.125;"/><line style="stroke:#404F47;stroke-width:3.125;" x1="870.3125" x2="1429.6875" y1="1816.9678" y2="1816.9678"/><text fill="#090B0A" font-family="Source Sans Pro" font-size="37.5" lengthAdjust="spacing" textLength="340.625" x="973.4375" y="1802.478">Encounter complete</text><!--MD5=[b2a6d6975adc5b102b42c13abbf0241d]
@startuml FirstContact
!include styling.puml
title First Contact
actor "Pregnant Woman" as PW
actor "Clerk" as Clerk
actor "Nurse" as Nurse
participant "App" as App
participant "Engine" as Engine
participant "Server" as Server

PW -> Clerk: Seeks care
Clerk -> App: Registration
ref over Clerk, App : See Registration Sequence
App -> Clerk: Registration complete
Clerk -> PW: Wait for nurse
Clerk -> Nurse: Patient is ready
...
Nurse -> App: Enrollment
ref over Nurse, App : See Enrollment Sequence
App -> Nurse: Enrollment complete
...
Nurse -> App: Encounter Processing
ref over Nurse, App : See Encounter Processing Sequence
App -> Nurse: Encounter complete

@enduml

@startuml FirstContact









skinparam {
  dpi 300
  defaultFontName Source Sans Pro

  TitleFontStyle bold

  BackgroundColor #fff
  Shadowing false

	ArrowColor #404F47
  ArrowFontColor #090B0A
  ArrowFontSize 12
  ArrowFont Open Sans

  DelayFontColor #090B0A
  DelayFontSize 12

  ActorBorderColor #090B0A
  ActorBackgroundColor #fff
  ActorFontColor #090B0A
  ActorFontSize 14
  ActorFontStyle bold

	ParticipantBorderColor #090B0A
  ParticipantBackgroundColor #FAA40F
  ParticipantFontColor #090B0A
  ParticipantFontSize 14
  ParticipantFontStyle bold

  DatabaseBorderColor #090B0A
  DatabaseBackgroundColor #FAA40F
  DatabaseFontColor #090B0A
  DatabaseFontSize 14
  DatabaseFontStyle bold

}


skinparam Sequence {
  MessageAlign center

  LifeLineBorderColor #090B0A
  GroupBodyBackgroundColor #fff
  GroupBackgroundColor #3064BF
  GroupHeaderFontColor #fff
  GroupHeaderFontSize 12
  GroupFontSize 12

  BoxBackgroundColor $gray7
  BoxBorderColor #090B0A
  BoxFontColor #090B0A
  BoxFontSize 12

  DividerBackgroundColor #3064BF
  DividerBorderColor #090B0A
  DividerFontColor #fff
  DividerFontSize 12
}

skinparam Note {
  BackgroundColor #477154
  BorderColor #090B0A
  FontColor #fff
  FontStyle bold
  FontSize 12
  Font Open Sans
}

hide footbox

title First Contact
actor "Pregnant Woman" as PW
actor "Clerk" as Clerk
actor "Nurse" as Nurse
participant "App" as App
participant "Engine" as Engine
participant "Server" as Server

PW -> Clerk: Seeks care
Clerk -> App: Registration
ref over Clerk, App : See Registration Sequence
App -> Clerk: Registration complete
Clerk -> PW: Wait for nurse
Clerk -> Nurse: Patient is ready
...
Nurse -> App: Enrollment
ref over Nurse, App : See Enrollment Sequence
App -> Nurse: Enrollment complete
...
Nurse -> App: Encounter Processing
ref over Nurse, App : See Encounter Processing Sequence
App -> Nurse: Encounter complete

@enduml

PlantUML version 1.2021.7(Sun May 23 06:40:07 MDT 2021)
(GPL source distribution)
Java Runtime: OpenJDK Runtime Environment
JVM: Eclipse OpenJ9 VM
Default Encoding: Cp1252
Language: en
Country: US
--></g></svg>