<?xml version="1.0" encoding="UTF-8" standalone="no"?><svg xmlns="http://www.w3.org/2000/svg" xmlns:xlink="http://www.w3.org/1999/xlink" contentScriptType="application/ecmascript" contentStyleType="text/css" height="615px" preserveAspectRatio="none" style="width:646px;height:615px;background:#FFFFFF;" version="1.1" viewBox="0 0 646 615" width="646px" zoomAndPan="magnify"><defs><filter height="300%" id="f1plo90yeavz9r" width="300%" x="-1" y="-1"><feGaussianBlur result="blurOut" stdDeviation="2.0"/><feColorMatrix in="blurOut" result="blurOut2" type="matrix" values="0 0 0 0 0 0 0 0 0 0 0 0 0 0 0 0 0 0 .4 0"/><feOffset dx="4.0" dy="4.0" in="blurOut2" result="blurOut3"/><feBlend in="SourceGraphic" in2="blurOut3" mode="normal"/></filter></defs><g><text fill="#000000" font-family="sans-serif" font-size="18" lengthAdjust="spacing" textLength="102" x="269.75" y="30.6855">First Contact</text><line style="stroke:#A80036;stroke-width:1.0;" x1="69" x2="69" y1="78.25" y2="287.7109"/><line style="stroke:#A80036;stroke-width:1.0;stroke-dasharray:1.0,4.0;" x1="69" x2="69" y1="287.7109" y2="315.7109"/><line style="stroke:#A80036;stroke-width:1.0;" x1="69" x2="69" y1="315.7109" y2="424.1172"/><line style="stroke:#A80036;stroke-width:1.0;stroke-dasharray:1.0,4.0;" x1="69" x2="69" y1="424.1172" y2="452.1172"/><line style="stroke:#A80036;stroke-width:1.0;" x1="69" x2="69" y1="452.1172" y2="570.5234"/><line style="stroke:#A80036;stroke-width:1.0;" x1="174" x2="174" y1="78.25" y2="287.7109"/><line style="stroke:#A80036;stroke-width:1.0;stroke-dasharray:1.0,4.0;" x1="174" x2="174" y1="287.7109" y2="315.7109"/><line style="stroke:#A80036;stroke-width:1.0;" x1="174" x2="174" y1="315.7109" y2="424.1172"/><line style="stroke:#A80036;stroke-width:1.0;stroke-dasharray:1.0,4.0;" x1="174" x2="174" y1="424.1172" y2="452.1172"/><line style="stroke:#A80036;stroke-width:1.0;" x1="174" x2="174" y1="452.1172" y2="570.5234"/><line style="stroke:#A80036;stroke-width:1.0;" x1="289.5" x2="289.5" y1="78.25" y2="287.7109"/><line style="stroke:#A80036;stroke-width:1.0;stroke-dasharray:1.0,4.0;" x1="289.5" x2="289.5" y1="287.7109" y2="315.7109"/><line style="stroke:#A80036;stroke-width:1.0;" x1="289.5" x2="289.5" y1="315.7109" y2="424.1172"/><line style="stroke:#A80036;stroke-width:1.0;stroke-dasharray:1.0,4.0;" x1="289.5" x2="289.5" y1="424.1172" y2="452.1172"/><line style="stroke:#A80036;stroke-width:1.0;" x1="289.5" x2="289.5" y1="452.1172" y2="570.5234"/><line style="stroke:#A80036;stroke-width:1.0;" x1="472.5" x2="472.5" y1="78.25" y2="287.7109"/><line style="stroke:#A80036;stroke-width:1.0;stroke-dasharray:1.0,4.0;" x1="472.5" x2="472.5" y1="287.7109" y2="315.7109"/><line style="stroke:#A80036;stroke-width:1.0;" x1="472.5" x2="472.5" y1="315.7109" y2="424.1172"/><line style="stroke:#A80036;stroke-width:1.0;stroke-dasharray:1.0,4.0;" x1="472.5" x2="472.5" y1="424.1172" y2="452.1172"/><line style="stroke:#A80036;stroke-width:1.0;" x1="472.5" x2="472.5" y1="452.1172" y2="570.5234"/><line style="stroke:#A80036;stroke-width:1.0;" x1="535.5" x2="535.5" y1="78.25" y2="287.7109"/><line style="stroke:#A80036;stroke-width:1.0;stroke-dasharray:1.0,4.0;" x1="535.5" x2="535.5" y1="287.7109" y2="315.7109"/><line style="stroke:#A80036;stroke-width:1.0;" x1="535.5" x2="535.5" y1="315.7109" y2="424.1172"/><line style="stroke:#A80036;stroke-width:1.0;stroke-dasharray:1.0,4.0;" x1="535.5" x2="535.5" y1="424.1172" y2="452.1172"/><line style="stroke:#A80036;stroke-width:1.0;" x1="535.5" x2="535.5" y1="452.1172" y2="570.5234"/><line style="stroke:#A80036;stroke-width:1.0;" x1="606.5" x2="606.5" y1="78.25" y2="287.7109"/><line style="stroke:#A80036;stroke-width:1.0;stroke-dasharray:1.0,4.0;" x1="606.5" x2="606.5" y1="287.7109" y2="315.7109"/><line style="stroke:#A80036;stroke-width:1.0;" x1="606.5" x2="606.5" y1="315.7109" y2="424.1172"/><line style="stroke:#A80036;stroke-width:1.0;stroke-dasharray:1.0,4.0;" x1="606.5" x2="606.5" y1="424.1172" y2="452.1172"/><line style="stroke:#A80036;stroke-width:1.0;" x1="606.5" x2="606.5" y1="452.1172" y2="570.5234"/><rect fill="#FEFECE" filter="url(#f1plo90yeavz9r)" height="31.6094" style="stroke:#A80036;stroke-width:1.5;" width="125" x="5" y="41.6406"/><text fill="#000000" font-family="sans-serif" font-size="14" lengthAdjust="spacing" textLength="111" x="12" y="63.1738">Pregnant Woman</text><rect fill="#FEFECE" filter="url(#f1plo90yeavz9r)" height="31.6094" style="stroke:#A80036;stroke-width:1.5;" width="125" x="5" y="569.5234"/><text fill="#000000" font-family="sans-serif" font-size="14" lengthAdjust="spacing" textLength="111" x="12" y="591.0566">Pregnant Woman</text><rect fill="#FEFECE" filter="url(#f1plo90yeavz9r)" height="31.6094" style="stroke:#A80036;stroke-width:1.5;" width="47" x="149" y="41.6406"/><text fill="#000000" font-family="sans-serif" font-size="14" lengthAdjust="spacing" textLength="33" x="156" y="63.1738">Clerk</text><rect fill="#FEFECE" filter="url(#f1plo90yeavz9r)" height="31.6094" style="stroke:#A80036;stroke-width:1.5;" width="47" x="149" y="569.5234"/><text fill="#000000" font-family="sans-serif" font-size="14" lengthAdjust="spacing" textLength="33" x="156" y="591.0566">Clerk</text><rect fill="#FEFECE" filter="url(#f1plo90yeavz9r)" height="31.6094" style="stroke:#A80036;stroke-width:1.5;" width="52" x="261.5" y="41.6406"/><text fill="#000000" font-family="sans-serif" font-size="14" lengthAdjust="spacing" textLength="38" x="268.5" y="63.1738">Nurse</text><rect fill="#FEFECE" filter="url(#f1plo90yeavz9r)" height="31.6094" style="stroke:#A80036;stroke-width:1.5;" width="52" x="261.5" y="569.5234"/><text fill="#000000" font-family="sans-serif" font-size="14" lengthAdjust="spacing" textLength="38" x="268.5" y="591.0566">Nurse</text><rect fill="#FEFECE" filter="url(#f1plo90yeavz9r)" height="31.6094" style="stroke:#A80036;stroke-width:1.5;" width="39" x="451.5" y="41.6406"/><text fill="#000000" font-family="sans-serif" font-size="14" lengthAdjust="spacing" textLength="25" x="458.5" y="63.1738">App</text><rect fill="#FEFECE" filter="url(#f1plo90yeavz9r)" height="31.6094" style="stroke:#A80036;stroke-width:1.5;" width="39" x="451.5" y="569.5234"/><text fill="#000000" font-family="sans-serif" font-size="14" lengthAdjust="spacing" textLength="25" x="458.5" y="591.0566">App</text><rect fill="#FEFECE" filter="url(#f1plo90yeavz9r)" height="31.6094" style="stroke:#A80036;stroke-width:1.5;" width="58" x="504.5" y="41.6406"/><text fill="#000000" font-family="sans-serif" font-size="14" lengthAdjust="spacing" textLength="44" x="511.5" y="63.1738">Engine</text><rect fill="#FEFECE" filter="url(#f1plo90yeavz9r)" height="31.6094" style="stroke:#A80036;stroke-width:1.5;" width="58" x="504.5" y="569.5234"/><text fill="#000000" font-family="sans-serif" font-size="14" lengthAdjust="spacing" textLength="44" x="511.5" y="591.0566">Engine</text><rect fill="#FEFECE" filter="url(#f1plo90yeavz9r)" height="31.6094" style="stroke:#A80036;stroke-width:1.5;" width="56" x="576.5" y="41.6406"/><text fill="#000000" font-family="sans-serif" font-size="14" lengthAdjust="spacing" textLength="42" x="583.5" y="63.1738">Server</text><rect fill="#FEFECE" filter="url(#f1plo90yeavz9r)" height="31.6094" style="stroke:#A80036;stroke-width:1.5;" width="56" x="576.5" y="569.5234"/><text fill="#000000" font-family="sans-serif" font-size="14" lengthAdjust="spacing" textLength="42" x="583.5" y="591.0566">Server</text><polygon fill="#A80036" points="162.5,106.6016,172.5,110.6016,162.5,114.6016,166.5,110.6016" style="stroke:#A80036;stroke-width:1.0;"/><line style="stroke:#A80036;stroke-width:1.0;" x1="69.5" x2="168.5" y1="110.6016" y2="110.6016"/><text fill="#000000" font-family="sans-serif" font-size="13" lengthAdjust="spacing" textLength="66" x="76.5" y="105.7451">Seeks care</text><polygon fill="#A80036" points="461,136.9531,471,140.9531,461,144.9531,465,140.9531" style="stroke:#A80036;stroke-width:1.0;"/><line style="stroke:#A80036;stroke-width:1.0;" x1="174.5" x2="467" y1="140.9531" y2="140.9531"/><text fill="#000000" font-family="sans-serif" font-size="13" lengthAdjust="spacing" textLength="69" x="181.5" y="136.0967">Registration</text><rect fill="#FFFFFF" filter="url(#f1plo90yeavz9r)" height="42.7031" style="stroke:#000000;stroke-width:2.0;" width="347.5" x="146" y="148.9531"/><polygon fill="#EEEEEE" points="146,148.9531,207,148.9531,207,156.9531,197,166.9531,146,166.9531,146,148.9531" style="stroke:#000000;stroke-width:2.0;"/><text fill="#000000" font-family="sans-serif" font-size="13" font-weight="bold" lengthAdjust="spacing" textLength="16" x="159" y="164.4482">ref</text><text fill="#000000" font-family="sans-serif" font-size="13" lengthAdjust="spacing" textLength="158" x="242.75" y="184.4482">See Registration Sequence</text><polygon fill="#A80036" points="185.5,215.0078,175.5,219.0078,185.5,223.0078,181.5,219.0078" style="stroke:#A80036;stroke-width:1.0;"/><line style="stroke:#A80036;stroke-width:1.0;" x1="179.5" x2="472" y1="219.0078" y2="219.0078"/><text fill="#000000" font-family="sans-serif" font-size="13" lengthAdjust="spacing" textLength="126" x="191.5" y="214.1514">Registration complete</text><polygon fill="#A80036" points="80.5,245.3594,70.5,249.3594,80.5,253.3594,76.5,249.3594" style="stroke:#A80036;stroke-width:1.0;"/><line style="stroke:#A80036;stroke-width:1.0;" x1="74.5" x2="173.5" y1="249.3594" y2="249.3594"/><text fill="#000000" font-family="sans-serif" font-size="13" lengthAdjust="spacing" textLength="81" x="86.5" y="244.5029">Wait for nurse</text><polygon fill="#A80036" points="277.5,275.7109,287.5,279.7109,277.5,283.7109,281.5,279.7109" style="stroke:#A80036;stroke-width:1.0;"/><line style="stroke:#A80036;stroke-width:1.0;" x1="174.5" x2="283.5" y1="279.7109" y2="279.7109"/><text fill="#000000" font-family="sans-serif" font-size="13" lengthAdjust="spacing" textLength="91" x="181.5" y="274.8545">Patient is ready</text><polygon fill="#A80036" points="461,334.0625,471,338.0625,461,342.0625,465,338.0625" style="stroke:#A80036;stroke-width:1.0;"/><line style="stroke:#A80036;stroke-width:1.0;" x1="289.5" x2="467" y1="338.0625" y2="338.0625"/><text fill="#000000" font-family="sans-serif" font-size="13" lengthAdjust="spacing" textLength="62" x="296.5" y="333.2061">Enrollment</text><rect fill="#FFFFFF" filter="url(#f1plo90yeavz9r)" height="42.7031" style="stroke:#000000;stroke-width:2.0;" width="235" x="258.5" y="346.0625"/><polygon fill="#EEEEEE" points="258.5,346.0625,319.5,346.0625,319.5,354.0625,309.5,364.0625,258.5,364.0625,258.5,346.0625" style="stroke:#000000;stroke-width:2.0;"/><text fill="#000000" font-family="sans-serif" font-size="13" font-weight="bold" lengthAdjust="spacing" textLength="16" x="271.5" y="361.5576">ref</text><text fill="#000000" font-family="sans-serif" font-size="13" lengthAdjust="spacing" textLength="151" x="302.5" y="381.5576">See Enrollment Sequence</text><polygon fill="#A80036" points="300.5,412.1172,290.5,416.1172,300.5,420.1172,296.5,416.1172" style="stroke:#A80036;stroke-width:1.0;"/><line style="stroke:#A80036;stroke-width:1.0;" x1="294.5" x2="472" y1="416.1172" y2="416.1172"/><text fill="#000000" font-family="sans-serif" font-size="13" lengthAdjust="spacing" textLength="119" x="306.5" y="411.2607">Enrollment complete</text><polygon fill="#A80036" points="461,470.4688,471,474.4688,461,478.4688,465,474.4688" style="stroke:#A80036;stroke-width:1.0;"/><line style="stroke:#A80036;stroke-width:1.0;" x1="289.5" x2="467" y1="474.4688" y2="474.4688"/><text fill="#000000" font-family="sans-serif" font-size="13" lengthAdjust="spacing" textLength="128" x="296.5" y="469.6123">Encounter Processing</text><rect fill="#FFFFFF" filter="url(#f1plo90yeavz9r)" height="42.7031" style="stroke:#000000;stroke-width:2.0;" width="235" x="258.5" y="482.4688"/><polygon fill="#EEEEEE" points="258.5,482.4688,319.5,482.4688,319.5,490.4688,309.5,500.4688,258.5,500.4688,258.5,482.4688" style="stroke:#000000;stroke-width:2.0;"/><text fill="#000000" font-family="sans-serif" font-size="13" font-weight="bold" lengthAdjust="spacing" textLength="16" x="271.5" y="497.9639">ref</text><text fill="#000000" font-family="sans-serif" font-size="13" lengthAdjust="spacing" textLength="217" x="269.5" y="517.9639">See Encounter Processing Sequence</text><polygon fill="#A80036" points="300.5,548.5234,290.5,552.5234,300.5,556.5234,296.5,552.5234" style="stroke:#A80036;stroke-width:1.0;"/><line style="stroke:#A80036;stroke-width:1.0;" x1="294.5" x2="472" y1="552.5234" y2="552.5234"/><text fill="#000000" font-family="sans-serif" font-size="13" lengthAdjust="spacing" textLength="116" x="306.5" y="547.667">Encounter complete</text><!--MD5=[ff558860c0092a4343293fdf5ee21529]
@startuml FirstContact
title First Contact
participant "Pregnant Woman" as PW
participant "Clerk" as Clerk
participant "Nurse" as Nurse
participant "App" as App
participant "Engine" as Engine
participant "Server" as Server

PW -> Clerk: Seeks care
Clerk -> App: Registration
ref over Clerk, App : See Registration Sequence
App -> Clerk: Registration complete
Clerk -> PW: Wait for nurse
Clerk -> Nurse: Patient is ready
...
Nurse -> App: Enrollment
ref over Nurse, App : See Enrollment Sequence
App -> Nurse: Enrollment complete
...
Nurse -> App: Encounter Processing
ref over Nurse, App : See Encounter Processing Sequence
App -> Nurse: Encounter complete

@enduml

PlantUML version 1.2021.7(Sun May 23 06:40:07 MDT 2021)
(GPL source distribution)
Java Runtime: OpenJDK Runtime Environment
JVM: Eclipse OpenJ9 VM
Default Encoding: Cp1252
Language: en
Country: US
--></g></svg>