<?xml version="1.0" encoding="UTF-8" standalone="no"?><svg xmlns="http://www.w3.org/2000/svg" xmlns:xlink="http://www.w3.org/1999/xlink" contentScriptType="application/ecmascript" contentStyleType="text/css" height="737px" preserveAspectRatio="none" style="width:726px;height:737px;background:#FFFFFF;" version="1.1" viewBox="0 0 726 737" width="726px" zoomAndPan="magnify"><defs><filter height="300%" id="fzsilc1cp0cnt" width="300%" x="-1" y="-1"><feGaussianBlur result="blurOut" stdDeviation="2.0"/><feColorMatrix in="blurOut" result="blurOut2" type="matrix" values="0 0 0 0 0 0 0 0 0 0 0 0 0 0 0 0 0 0 .4 0"/><feOffset dx="4.0" dy="4.0" in="blurOut2" result="blurOut3"/><feBlend in="SourceGraphic" in2="blurOut3" mode="normal"/></filter></defs><g><text fill="#000000" font-family="sans-serif" font-size="18" lengthAdjust="spacing" textLength="102" x="310.25" y="30.6855">First Contact</text><rect fill="#FFFFFF" filter="url(#fzsilc1cp0cnt)" height="428.7578" style="stroke:#000000;stroke-width:2.0;" width="525.5" x="187" y="216.6563"/><rect fill="#FFFFFF" height="228.2969" style="stroke:none;stroke-width:1.0;" width="525.5" x="187" y="417.1172"/><line style="stroke:#A80036;stroke-width:1.0;stroke-dasharray:5.0,5.0;" x1="69" x2="69" y1="78.25" y2="692.7656"/><line style="stroke:#A80036;stroke-width:1.0;stroke-dasharray:5.0,5.0;" x1="222" x2="222" y1="78.25" y2="692.7656"/><line style="stroke:#A80036;stroke-width:1.0;stroke-dasharray:5.0,5.0;" x1="286" x2="286" y1="78.25" y2="692.7656"/><line style="stroke:#A80036;stroke-width:1.0;stroke-dasharray:5.0,5.0;" x1="396" x2="396" y1="78.25" y2="692.7656"/><line style="stroke:#A80036;stroke-width:1.0;stroke-dasharray:5.0,5.0;" x1="534.5" x2="534.5" y1="78.25" y2="692.7656"/><line style="stroke:#A80036;stroke-width:1.0;stroke-dasharray:5.0,5.0;" x1="672.5" x2="672.5" y1="78.25" y2="692.7656"/><rect fill="#FEFECE" filter="url(#fzsilc1cp0cnt)" height="31.6094" style="stroke:#A80036;stroke-width:1.5;" width="125" x="5" y="41.6406"/><text fill="#000000" font-family="sans-serif" font-size="14" lengthAdjust="spacing" textLength="111" x="12" y="63.1738">Pregnant Woman</text><rect fill="#FEFECE" filter="url(#fzsilc1cp0cnt)" height="31.6094" style="stroke:#A80036;stroke-width:1.5;" width="125" x="5" y="691.7656"/><text fill="#000000" font-family="sans-serif" font-size="14" lengthAdjust="spacing" textLength="111" x="12" y="713.2988">Pregnant Woman</text><rect fill="#FEFECE" filter="url(#fzsilc1cp0cnt)" height="31.6094" style="stroke:#A80036;stroke-width:1.5;" width="47" x="197" y="41.6406"/><text fill="#000000" font-family="sans-serif" font-size="14" lengthAdjust="spacing" textLength="33" x="204" y="63.1738">Clerk</text><rect fill="#FEFECE" filter="url(#fzsilc1cp0cnt)" height="31.6094" style="stroke:#A80036;stroke-width:1.5;" width="47" x="197" y="691.7656"/><text fill="#000000" font-family="sans-serif" font-size="14" lengthAdjust="spacing" textLength="33" x="204" y="713.2988">Clerk</text><rect fill="#FEFECE" filter="url(#fzsilc1cp0cnt)" height="31.6094" style="stroke:#A80036;stroke-width:1.5;" width="52" x="258" y="41.6406"/><text fill="#000000" font-family="sans-serif" font-size="14" lengthAdjust="spacing" textLength="38" x="265" y="63.1738">Nurse</text><rect fill="#FEFECE" filter="url(#fzsilc1cp0cnt)" height="31.6094" style="stroke:#A80036;stroke-width:1.5;" width="52" x="258" y="691.7656"/><text fill="#000000" font-family="sans-serif" font-size="14" lengthAdjust="spacing" textLength="38" x="265" y="713.2988">Nurse</text><rect fill="#FEFECE" filter="url(#fzsilc1cp0cnt)" height="31.6094" style="stroke:#A80036;stroke-width:1.5;" width="39" x="375" y="41.6406"/><text fill="#000000" font-family="sans-serif" font-size="14" lengthAdjust="spacing" textLength="25" x="382" y="63.1738">App</text><rect fill="#FEFECE" filter="url(#fzsilc1cp0cnt)" height="31.6094" style="stroke:#A80036;stroke-width:1.5;" width="39" x="375" y="691.7656"/><text fill="#000000" font-family="sans-serif" font-size="14" lengthAdjust="spacing" textLength="25" x="382" y="713.2988">App</text><rect fill="#FEFECE" filter="url(#fzsilc1cp0cnt)" height="31.6094" style="stroke:#A80036;stroke-width:1.5;" width="58" x="503.5" y="41.6406"/><text fill="#000000" font-family="sans-serif" font-size="14" lengthAdjust="spacing" textLength="44" x="510.5" y="63.1738">Engine</text><rect fill="#FEFECE" filter="url(#fzsilc1cp0cnt)" height="31.6094" style="stroke:#A80036;stroke-width:1.5;" width="58" x="503.5" y="691.7656"/><text fill="#000000" font-family="sans-serif" font-size="14" lengthAdjust="spacing" textLength="44" x="510.5" y="713.2988">Engine</text><rect fill="#FEFECE" filter="url(#fzsilc1cp0cnt)" height="31.6094" style="stroke:#A80036;stroke-width:1.5;" width="56" x="642.5" y="41.6406"/><text fill="#000000" font-family="sans-serif" font-size="14" lengthAdjust="spacing" textLength="42" x="649.5" y="63.1738">Server</text><rect fill="#FEFECE" filter="url(#fzsilc1cp0cnt)" height="31.6094" style="stroke:#A80036;stroke-width:1.5;" width="56" x="642.5" y="691.7656"/><text fill="#000000" font-family="sans-serif" font-size="14" lengthAdjust="spacing" textLength="42" x="649.5" y="713.2988">Server</text><polygon fill="#A80036" points="210.5,106.6016,220.5,110.6016,210.5,114.6016,214.5,110.6016" style="stroke:#A80036;stroke-width:1.0;"/><line style="stroke:#A80036;stroke-width:1.0;" x1="69.5" x2="216.5" y1="110.6016" y2="110.6016"/><text fill="#000000" font-family="sans-serif" font-size="13" lengthAdjust="spacing" textLength="129" x="76.5" y="105.7451">Provide demographics</text><polygon fill="#A80036" points="384.5,136.9531,394.5,140.9531,384.5,144.9531,388.5,140.9531" style="stroke:#A80036;stroke-width:1.0;"/><line style="stroke:#A80036;stroke-width:1.0;" x1="222.5" x2="390.5" y1="140.9531" y2="140.9531"/><text fill="#000000" font-family="sans-serif" font-size="13" lengthAdjust="spacing" textLength="103" x="229.5" y="136.0967">Enter patient data</text><polygon fill="#A80036" points="522.5,167.3047,532.5,171.3047,522.5,175.3047,526.5,171.3047" style="stroke:#A80036;stroke-width:1.0;"/><line style="stroke:#A80036;stroke-width:1.0;" x1="396.5" x2="528.5" y1="171.3047" y2="171.3047"/><text fill="#000000" font-family="sans-serif" font-size="13" lengthAdjust="spacing" textLength="114" x="403.5" y="166.4482">Search for matches</text><polygon fill="#A80036" points="660.5,197.6563,670.5,201.6563,660.5,205.6563,664.5,201.6563" style="stroke:#A80036;stroke-width:1.0;"/><line style="stroke:#A80036;stroke-width:1.0;" x1="534.5" x2="666.5" y1="201.6563" y2="201.6563"/><text fill="#000000" font-family="sans-serif" font-size="13" lengthAdjust="spacing" textLength="114" x="541.5" y="196.7998">Search for matches</text><path d="M187,216.6563 L247,216.6563 L247,224.6563 L237,234.6563 L187,234.6563 L187,216.6563 " fill="#EEEEEE" style="stroke:#000000;stroke-width:1.0;"/><rect fill="none" height="428.7578" style="stroke:#000000;stroke-width:2.0;" width="525.5" x="187" y="216.6563"/><text fill="#000000" font-family="sans-serif" font-size="13" font-weight="bold" lengthAdjust="spacing" textLength="15" x="202" y="231.1514">alt</text><text fill="#000000" font-family="sans-serif" font-size="11" font-weight="bold" lengthAdjust="spacing" textLength="70" x="262" y="230.0752">[no matches]</text><polygon fill="#A80036" points="545.5,253.3594,535.5,257.3594,545.5,261.3594,541.5,257.3594" style="stroke:#A80036;stroke-width:1.0;"/><line style="stroke:#A80036;stroke-width:1.0;" x1="539.5" x2="671.5" y1="257.3594" y2="257.3594"/><text fill="#000000" font-family="sans-serif" font-size="13" lengthAdjust="spacing" textLength="110" x="551.5" y="252.5029">Return no matches</text><polygon fill="#A80036" points="407.5,283.7109,397.5,287.7109,407.5,291.7109,403.5,287.7109" style="stroke:#A80036;stroke-width:1.0;"/><line style="stroke:#A80036;stroke-width:1.0;" x1="401.5" x2="533.5" y1="287.7109" y2="287.7109"/><text fill="#000000" font-family="sans-serif" font-size="13" lengthAdjust="spacing" textLength="110" x="413.5" y="282.8545">Return no matches</text><polygon fill="#A80036" points="522.5,314.0625,532.5,318.0625,522.5,322.0625,526.5,318.0625" style="stroke:#A80036;stroke-width:1.0;"/><line style="stroke:#A80036;stroke-width:1.0;" x1="396.5" x2="528.5" y1="318.0625" y2="318.0625"/><text fill="#000000" font-family="sans-serif" font-size="13" lengthAdjust="spacing" textLength="83" x="403.5" y="313.2061">Create Patient</text><polygon fill="#A80036" points="660.5,344.4141,670.5,348.4141,660.5,352.4141,664.5,348.4141" style="stroke:#A80036;stroke-width:1.0;"/><line style="stroke:#A80036;stroke-width:1.0;" x1="534.5" x2="666.5" y1="348.4141" y2="348.4141"/><text fill="#000000" font-family="sans-serif" font-size="13" lengthAdjust="spacing" textLength="83" x="541.5" y="343.5576">Create Patient</text><polygon fill="#A80036" points="545.5,374.7656,535.5,378.7656,545.5,382.7656,541.5,378.7656" style="stroke:#A80036;stroke-width:1.0;"/><line style="stroke:#A80036;stroke-width:1.0;" x1="539.5" x2="671.5" y1="378.7656" y2="378.7656"/><text fill="#000000" font-family="sans-serif" font-size="13" lengthAdjust="spacing" textLength="83" x="551.5" y="373.9092">Return Patient</text><polygon fill="#A80036" points="407.5,405.1172,397.5,409.1172,407.5,413.1172,403.5,409.1172" style="stroke:#A80036;stroke-width:1.0;"/><line style="stroke:#A80036;stroke-width:1.0;" x1="401.5" x2="533.5" y1="409.1172" y2="409.1172"/><text fill="#000000" font-family="sans-serif" font-size="13" lengthAdjust="spacing" textLength="83" x="413.5" y="404.2607">Return Patient</text><line style="stroke:#000000;stroke-width:1.0;stroke-dasharray:2.0,2.0;" x1="187" x2="712.5" y1="418.1172" y2="418.1172"/><text fill="#000000" font-family="sans-serif" font-size="11" font-weight="bold" lengthAdjust="spacing" textLength="103" x="192" y="429.5361">[potential matches]</text><polygon fill="#A80036" points="407.5,451.3047,397.5,455.3047,407.5,459.3047,403.5,455.3047" style="stroke:#A80036;stroke-width:1.0;"/><line style="stroke:#A80036;stroke-width:1.0;" x1="401.5" x2="671.5" y1="455.3047" y2="455.3047"/><text fill="#000000" font-family="sans-serif" font-size="13" lengthAdjust="spacing" textLength="152" x="413.5" y="450.4482">Returns potential matches</text><polygon fill="#A80036" points="233.5,481.6563,223.5,485.6563,233.5,489.6563,229.5,485.6563" style="stroke:#A80036;stroke-width:1.0;"/><line style="stroke:#A80036;stroke-width:1.0;" x1="227.5" x2="395.5" y1="485.6563" y2="485.6563"/><text fill="#000000" font-family="sans-serif" font-size="13" lengthAdjust="spacing" textLength="150" x="239.5" y="480.7998">Display potential matches</text><polygon fill="#A80036" points="384.5,512.0078,394.5,516.0078,384.5,520.0078,388.5,516.0078" style="stroke:#A80036;stroke-width:1.0;"/><line style="stroke:#A80036;stroke-width:1.0;" x1="222.5" x2="390.5" y1="516.0078" y2="516.0078"/><text fill="#000000" font-family="sans-serif" font-size="13" lengthAdjust="spacing" textLength="77" x="229.5" y="511.1514">Select match</text><polygon fill="#A80036" points="522.5,542.3594,532.5,546.3594,522.5,550.3594,526.5,546.3594" style="stroke:#A80036;stroke-width:1.0;"/><line style="stroke:#A80036;stroke-width:1.0;" x1="396.5" x2="528.5" y1="546.3594" y2="546.3594"/><text fill="#000000" font-family="sans-serif" font-size="13" lengthAdjust="spacing" textLength="86" x="403.5" y="541.5029">Identify patient</text><polygon fill="#A80036" points="660.5,572.7109,670.5,576.7109,660.5,580.7109,664.5,576.7109" style="stroke:#A80036;stroke-width:1.0;"/><line style="stroke:#A80036;stroke-width:1.0;" x1="534.5" x2="666.5" y1="576.7109" y2="576.7109"/><text fill="#000000" font-family="sans-serif" font-size="13" lengthAdjust="spacing" textLength="102" x="541.5" y="571.8545">Sync patient data</text><polygon fill="#A80036" points="545.5,603.0625,535.5,607.0625,545.5,611.0625,541.5,607.0625" style="stroke:#A80036;stroke-width:1.0;"/><line style="stroke:#A80036;stroke-width:1.0;" x1="539.5" x2="671.5" y1="607.0625" y2="607.0625"/><text fill="#000000" font-family="sans-serif" font-size="13" lengthAdjust="spacing" textLength="110" x="551.5" y="602.2061">Return patient data</text><polygon fill="#A80036" points="407.5,633.4141,397.5,637.4141,407.5,641.4141,403.5,637.4141" style="stroke:#A80036;stroke-width:1.0;"/><line style="stroke:#A80036;stroke-width:1.0;" x1="401.5" x2="533.5" y1="637.4141" y2="637.4141"/><text fill="#000000" font-family="sans-serif" font-size="13" lengthAdjust="spacing" textLength="83" x="413.5" y="632.5576">Return Patient</text><polygon fill="#A80036" points="233.5,670.7656,223.5,674.7656,233.5,678.7656,229.5,674.7656" style="stroke:#A80036;stroke-width:1.0;"/><line style="stroke:#A80036;stroke-width:1.0;" x1="227.5" x2="395.5" y1="674.7656" y2="674.7656"/><text fill="#000000" font-family="sans-serif" font-size="13" lengthAdjust="spacing" textLength="88" x="239.5" y="669.9092">Display Patient</text><!--MD5=[f80d333c2af9d47de43517dffaa0ed28]
@startuml Registration
title First Contact
participant "Pregnant Woman" as PW
participant "Clerk" as Clerk
participant "Nurse" as Nurse
participant "App" as App
participant "Engine" as Engine
participant "Server" as Server

PW -> Clerk: Provide demographics
Clerk -> App: Enter patient data
App -> Engine: Search for matches
Engine -> Server: Search for matches
alt no matches
Server -> Engine: Return no matches
Engine -> App: Return no matches
App -> Engine: Create Patient
Engine -> Server: Create Patient
Server -> Engine: Return Patient
Engine -> App: Return Patient
else potential matches
Server -> App: Returns potential matches
App -> Clerk: Display potential matches
Clerk -> App: Select match
App -> Engine: Identify patient
Engine -> Server: Sync patient data
Server -> Engine: Return patient data
Engine -> App: Return Patient
end
App -> Clerk: Display Patient

@enduml

PlantUML version 1.2021.7(Sun May 23 06:40:07 MDT 2021)
(GPL source distribution)
Java Runtime: OpenJDK Runtime Environment
JVM: Eclipse OpenJ9 VM
Default Encoding: Cp1252
Language: en
Country: US
--></g></svg>